<svg width="420" height="380" viewBox="0 0 420 380" xmlns="http://www.w3.org/2000/svg">
  <defs>
    <marker id="arrow" viewBox="0 0 10 10" refX="5" refY="5" markerWidth="6" markerHeight="6" orient="auto-start-reverse">
      <path d="M 0 0 L 10 5 L 0 10 z" fill="#2b6cb0" />
    </marker>
  </defs>
  <rect x="120" y="50" width="160" height="260" fill="#eef2f7" stroke="#4a5568" stroke-width="2" rx="6" />

  <line x1="140" y1="70" x2="240" y2="70" stroke="#2b6cb0" stroke-width="3" />
  <text x="140" y="62" font-family="Arial, sans-serif" font-size="12" fill="#2d3748">Top fiber</text>
  <line x1="140" y1="290" x2="240" y2="290" stroke="#2b6cb0" stroke-width="3" />
  <text x="140" y="308" font-family="Arial, sans-serif" font-size="12" fill="#2d3748">Bottom fiber</text>

  <g>
    <circle cx="150" cy="275" r="6" fill="#c53030" />
    <circle cx="230" cy="275" r="6" fill="#c53030" />
    <text x="170" y="278" font-family="Arial, sans-serif" font-size="18" fill="#2d3748">......</text>
  </g>

  <circle cx="150" cy="240" r="6" fill="#718096" />

  <line x1="290" y1="70" x2="290" y2="275" stroke="#2d3748" stroke-width="2" marker-start="url(#arrow)" marker-end="url(#arrow)" />
  <text x="300" y="175" font-family="Arial, sans-serif" font-size="12" fill="#2d3748" transform="rotate(90 300,175)">d1</text>

  <line x1="100" y1="70" x2="100" y2="240" stroke="#2d3748" stroke-width="2" marker-start="url(#arrow)" marker-end="url(#arrow)" />
  <text x="70" y="150" font-family="Arial, sans-serif" font-size="12" fill="#2d3748" transform="rotate(90 70,150)">d2</text>

  <line x1="140" y1="320" x2="230" y2="320" stroke="#2b6cb0" stroke-width="2" marker-start="url(#arrow)" marker-end="url(#arrow)" />
  <text x="165" y="335" font-family="Arial, sans-serif" font-size="12" fill="#2d3748">spacing</text>
  <circle cx="140" cy="320" r="4" fill="#c53030" />
  <circle cx="230" cy="320" r="4" fill="#c53030" />

  <line x1="320" y1="50" x2="320" y2="310" stroke="#2b6cb0" stroke-width="3" marker-start="url(#arrow)" marker-end="url(#arrow)" />
  <text x="330" y="180" font-family="Arial, sans-serif" font-size="12" fill="#2d3748" transform="rotate(90 330,180)">h</text>

  <text x="145" y="120" font-family="Arial, sans-serif" font-size="12" fill="#2d3748">Concrete section</text>
</svg>
